<?xml version="1.0" standalone="no"?>
<!DOCTYPE svg PUBLIC "-//W3C//DTD SVG 20010904//EN"
 "http://www.w3.org/TR/2001/REC-SVG-20010904/DTD/svg10.dtd">
<svg version="1.0" xmlns="http://www.w3.org/2000/svg"
 width="286.000000pt" height="289.000000pt" viewBox="0 0 286.000000 289.000000"
 preserveAspectRatio="xMidYMid meet">

<g transform="translate(0.000000,289.000000) scale(0.100000,-0.100000)"
fill="#000000" stroke="none">
<path d="M313 1703 c3 -916 -1 -862 78 -1014 76 -147 206 -258 369 -314 l85
-30 823 -3 823 -3 -3 823 c-4 808 -4 824 -25 886 -25 74 -81 179 -126 234 -46
58 -145 133 -221 169 -141 66 -90 63 -989 66 l-818 4 4 -818z m637 257 c19
-19 20 -33 20 -478 0 -343 3 -461 12 -470 9 -9 125 -12 459 -12 263 0 458 -4
473 -10 34 -13 44 -54 20 -81 -17 -19 -29 -19 -494 -17 l-477 3 -37 29 c-67
50 -66 44 -66 556 0 447 1 461 20 480 11 11 27 20 35 20 8 0 24 -9 35 -20z
m544 -106 c14 -14 16 -58 14 -371 -3 -322 -5 -357 -20 -367 -11 -7 -26 -7 -45
0 l-28 9 -3 354 c-2 319 -1 356 14 373 21 22 47 23 68 2z m272 -218 c18 -13
19 -30 22 -243 2 -245 -2 -275 -47 -281 -12 -2 -31 4 -42 14 -18 16 -19 33
-19 252 0 205 2 238 17 254 19 22 42 23 69 4z m-546 -276 c17 -17 20 -33 20
-119 0 -108 -10 -131 -55 -131 -40 0 -55 35 -55 127 0 106 12 134 63 142 4 0
16 -8 27 -19z"/>
</g>
</svg>
